<?xml version="1.0" encoding="UTF-8"?>
<svg width="1024px" height="1024px" viewBox="0 0 1024 1024" version="1.1" xmlns="http://www.w3.org/2000/svg" xmlns:xlink="http://www.w3.org/1999/xlink">
    <title>logo_transparent_light</title>
    <g id="transparent_light" stroke="none" stroke-width="1" fill="none" fill-rule="evenodd" stroke-linecap="round">
        <g id="1" transform="translate(185.073418, 499.250000) scale(-1, 1) translate(-185.073418, -499.250000) translate(115.000000, 372.000000)" stroke="#000000" stroke-linejoin="round" stroke-width="64">
            <path d="M140.146837,128 C140.146837,162.807481 112.350811,187.191787 85.447719,208.341715 C67.5123244,222.441667 39.0297514,237.827762 0,254.5" id="路径"></path>
            <path d="M140.146837,126.5 C140.146837,91.6925189 112.350811,67.3082128 85.447719,46.1582846 C67.5123244,32.0583326 39.0297514,16.6722377 0,0" id="路径"></path>
        </g>
        <g id="1" transform="translate(768.000000, 372.500000)" stroke="#000000" stroke-linejoin="round" stroke-width="64">
            <path d="M140.146837,128 C140.146837,162.807481 112.350811,187.191787 85.447719,208.341715 C67.5123244,222.441667 39.0297514,237.827762 0,254.5" id="路径"></path>
            <path d="M140.146837,126.5 C140.146837,91.6925189 112.350811,67.3082128 85.447719,46.1582846 C67.5123244,32.0583326 39.0297514,16.6722377 0,0" id="路径"></path>
        </g>
        <path d="M395.531777,747.296186 C377.830375,675.042278 368.979675,602.788371 368.979675,530.534464 C368.979675,422.153603 374.486294,401.846906 395.531777,351.199458 C416.577259,300.55201 493.425195,287.855113 530.460336,287.855113 C555.150431,287.855113 581.767692,296.494323 610.312121,313.772742 C647.667562,352.924247 666.345283,397.419927 666.345283,447.259782 C666.345283,497.099636 647.667562,535.763043 610.312121,563.25 C570.633337,590.216065 532.01061,599.412845 494.443942,590.840339 C456.877274,582.267834 415.055851,562.165875 368.979675,530.534464" id="P" stroke="#000000" stroke-width="64"></path>
    </g>
</svg>